PathFileType	4	(X/Y/Z)	trial_0_0-299.trc
DataRate	CameraRate	NumFrames	NumMarkers	Units	OrigDataRate	OrigDataStartFrame	OrigNumFrames
60	60	13	27	m	60	261	299
Frame#	Time	RHip			RKnee			RAnkle			RBigToe			RSmallToe			RHeel			LHip			LKnee			LAnkle			LBigToe			LSmallToe			LHeel			Neck			Head			Nose			RShoulder			RElbow			RWrist			RThumb			RIndex			RPinky			LShoulder			LElbow			LWrist			LThumb			LIndex			LPinky		
		X1	Y1	Z1	X2	Y2	Z2	X3	Y3	Z3	X4	Y4	Z4	X5	Y5	Z5	X6	Y6	Z6	X7	Y7	Z7	X8	Y8	Z8	X9	Y9	Z9	X10	Y10	Z10	X11	Y11	Z11	X12	Y12	Z12	X13	Y13	Z13	X14	Y14	Z14	X15	Y15	Z15	X16	Y16	Z16	X17	Y17	Z17	X18	Y18	Z18	X19	Y19	Z19	X20	Y20	Z20	X21	Y21	Z21	X22	Y22	Z22	X23	Y23	Z23	X24	Y24	Z24	X25	Y25	Z25	X26	Y26	Z26	X27	Y27	Z27
262	4.366666666666666	0.0	0.0	0.0	0.32174143788585297	0.24489740058369233	0.07956143011168543	0.0	0.0	0.0	0.0	0.0	0.0	0.0	0.0	0.0	0.0	0.0	0.0	0.0	0.0	0.0	0.0	0.0	0.0	0.0	0.0	0.0	0.0	0.0	0.0	0.0	0.0	0.0	0.0	0.0	0.0	0.0	0.0	0.0	0.0	0.0	0.0	0.0	0.0	0.0	0.0	0.0	0.0	0.0	0.0	0.0	0.0	0.0	0.0	0.0	0.0	0.0	0.00010131412471121604	0.00011478567035178249	1.3937950246402067e-05	0.1502237501808607	0.1701342621318934	0.019079820600839997	0.0	0.0	0.0	0.0	0.0	0.0	0.0	0.0	0.0	0.0	0.0	0.0	0.0	0.0	0.0	0.0	0.0	0.0
263	4.383333333333334	6.607229666347828e-05	0.00011695081468828633	1.9662878605866327e-05	0.21488760720908462	0.163355188321571	0.053139875263213975	0.00014126306507228017	0.0001199206905824861	1.2736211250009886e-05	0.0	0.0	0.0	0.00016096844254696145	0.00013001877601091867	1.6665698319319014e-05	0.00014560010867026052	0.0001191612327547568	1.2674058858260037e-05	0.0	0.0	0.0	0.0	0.0	0.0	0.0	0.0	0.0	0.0	0.0	0.0	0.0	0.0	0.0	0.0	0.0	0.0	0.0	0.0	0.0	0.0	0.0	0.0	0.0	0.0	0.0	0.0	0.0	0.0	4.655228868724986e-05	0.00011177121474023777	2.9841196800458635e-05	0.0	0.0	0.0	0.0	0.0	0.0	0.0	0.0	0.0	0.0566517593058718	0.06410374778670427	0.007209245403941603	0.0	0.0	0.0	0.0	0.0	0.0	0.0	0.0	0.0	0.0	0.0	0.0	0.0	0.0	0.0	0.0	0.0	0.0
264	4.4	0.0004973386647141256	0.0008797226831286295	0.00014771691048614567	0.11449322216812094	0.08726546247679273	0.028253038944189686	0.001062411488839017	0.0009018875854387872	9.577726894714994e-05	0.0	0.0	0.0	0.0012106054331266416	0.0009778767925772939	0.00012533918728109298	0.0010949749027069286	0.0008962137169473403	9.531663056398555e-05	0.0	0.0	0.0	0.0	0.0	0.0	0.0	0.0	0.0	0.0	0.0	0.0	0.0	0.0	0.0	0.0	0.0	0.0	0.0	0.0	0.0	0.0	0.0	0.0	0.0	0.0	0.0	0.0	0.0	0.0	0.00035014600092116887	0.0008406059814907387	0.00022442635361460034	0.0	0.0	0.0	0.0	0.0	0.0	0.0	0.0	0.0	0.017007514410805134	0.01923295303588734	0.0021661770721103186	0.0	0.0	0.0	0.0	0.0	0.0	0.0	0.0	0.0	0.0	0.0	0.0	0.0	0.0	0.0	0.0	0.0	0.0
265	4.416666666666667	0.002687399742903351	0.004753613023229376	0.0007979690633990826	0.051410869839597306	0.040668452011949456	0.012354408022588331	0.005739666577372657	0.004872835428822001	0.0005177624355181388	0.0	0.0	0.0	0.006540983461230714	0.005283743523409982	0.0006772717106446741	0.00591559284060834	0.004842159698549827	0.0005152682970880346	0.0	0.0	0.0	0.0	0.0	0.0	0.0	0.0	0.0	0.0	0.0	0.0	0.0	0.0	0.0	0.0	0.0	0.0	0.0	0.0	0.0	0.0	0.0	0.0	0.0	0.0	0.0	0.0	0.0	0.0	0.0018919537709431438	0.004541936691973814	0.0012126065916362226	0.0	0.0	0.0	0.0	0.0	0.0	0.0	0.0	0.0	0.0040467008955071175	0.004574352969019481	0.0005154998685132754	0.0	0.0	0.0	0.0	0.0	0.0	0.0	0.0	0.0	0.0	0.0	0.0	0.0	0.0	0.0	0.0	0.0	0.0
266	4.433333333333334	0.011351641312726089	0.02007648599461985	0.003368995949340439	0.03302608893193715	0.031949535591990465	0.006636877073012517	0.02423670172581561	0.020577640983734276	0.0021874028207764856	0.0	0.0	0.0	0.027622672575372674	0.022314097079935622	0.002860310058934161	0.024979519961493626	0.02044809490382205	0.0021768631997767965	0.0	0.0	0.0	0.0	0.0	0.0	0.0	0.0	0.0	0.0	0.0	0.0	0.0	0.0	0.0	0.0	0.0	0.0	0.0	0.0	0.0	0.0	0.0	0.0	0.0	0.0	0.0	0.0	0.0	0.0	0.007990174808622724	0.019180970656778824	0.005120901065836547	0.0	0.0	0.0	0.0	0.0	0.0	0.0	0.0	0.0	0.0007478320788328276	0.0008446968693946138	9.544400852341758e-05	0.0	0.0	0.0	0.0	0.0	0.0	0.0	0.0	0.0	0.0	0.0	0.0	0.0	0.0	0.0	0.0	0.0	0.0
267	4.45	0.03804632152589364	0.06727939673553604	0.01128577236746435	0.06331034075681084	0.07109437714760686	0.010518896216535432	0.08120227560404203	0.0689475028947215	0.007334312761066926	0.0	0.0	0.0	0.09255710478109816	0.07477265375639859	0.009585080164159723	0.0836909266904981	0.06851460236640203	0.007298274679820282	0.0	0.0	0.0	0.0	0.0	0.0	0.0	0.0	0.0	0.0	0.0	0.0	0.0	0.0	0.0	0.0	0.0	0.0	0.0	0.0	0.0	0.0	0.0	0.0	0.0	0.0	0.0	0.0	0.0	0.0	0.026774336188691295	0.06427228621476946	0.01715908621881023	0.0	0.0	0.0	0.0	0.0	0.0	0.0	0.0	0.0	9.928607568530515e-05	0.00011215819392720236	1.2592113943320278e-05	0.0	0.0	0.0	0.0	0.0	0.0	0.0	0.0	0.0	0.0	0.0	0.0	0.0	0.0	0.0	0.0	0.0	0.0
268	4.466666666666667	0.10210505724953467	0.18053057715706677	0.030270987591297833	0.16030520344280821	0.18346650400779663	0.025841847945721495	0.21781883332248192	0.18496366488609772	0.019697517012973054	0.0001613993578416633	0.00013106739927470082	8.01284685705132e-06	0.24831928492303287	0.2006176985961121	0.0257183313085243	0.22449579296055344	0.18380698241626753	0.019597185361688075	0.0	0.0	0.0	0.0	0.0	0.0	0.0	0.0	0.0	0.0	0.0	0.0	0.0	0.0	0.0	0.0	0.0	0.0	0.0	0.0	0.0	0.0	0.0	0.0	0.0	0.0	0.0	0.0	0.0	0.0	0.0718356577653164	0.17244050111099168	0.04603642470737897	0.0	0.0	0.0	0.0	0.0	0.0	0.0	0.0	0.0	0.0	0.0	0.0	0.0	0.0	0.0	0.0	0.0	0.0	0.0	0.0	0.0	0.0	0.0	0.0	0.0	0.0	0.0	0.0	0.0	0.0
269	4.483333333333333	0.221842130521388	0.39215879301048917	0.06573048092636975	0.34678143371837	0.3973511309747969	0.05574748507304143	0.472940214882113	0.4016466517160737	0.042851095137132034	0.0010524560186229198	0.0008546668032424102	5.22503249937373e-05	0.5392974254141552	0.4357352028728188	0.055862759292449965	0.48744649488343095	0.3991590667917341	0.04261540775563586	0.0	0.0	0.0	0.0	0.0	0.0	0.0	0.0	0.0	0.0	0.0	0.0	0.0	0.0	0.0	0.0	0.0	0.0	0.0	0.0	0.0	0.0	0.0	0.0	0.0	0.0	0.0	0.0	0.0	0.0	0.15601648306064608	0.37452524065027704	0.09998423326943653	0.0	0.0	0.0	0.0	0.0	0.0	0.0	0.0	0.0	0.0	0.0	0.0	0.0	0.0	0.0	0.0	0.0	0.0	0.0	0.0	0.0	0.0	0.0	0.0	0.0	0.0	0.0	0.0	0.0	0.0
270	4.5	0.39621611607565166	0.7001825394657053	0.11731625115543233	0.6191554501657963	0.7092012222030232	0.09946819434477376	0.8438757052609127	0.7167201179337022	0.07669510781223866	0.00550638319478972	0.004471298379726679	0.00027333179184549003	0.9626017764926682	0.7778324392065255	0.09972310723512626	0.8697902575438696	0.7123882271600928	0.07620461569009673	0.0	0.0	0.0	0.0	0.0	0.0	0.0	0.0	0.0	0.0	0.0	0.0	0.0	0.0	0.0	0.0	0.0	0.0	0.0	0.0	0.0	0.0	0.0	0.0	0.0	0.0	0.0	0.0	0.0	0.0	0.2784663056278887	0.6685571870540581	0.17847213838111808	0.0	0.0	0.0	0.0	0.0	0.0	0.0	0.0	0.0	0.0	0.0	0.0	0.0	0.0	0.0	0.0	0.0	0.0	0.0	0.0	0.0	0.0	0.0	0.0	0.0	0.0	0.0	0.0	0.0	0.0
271	4.516666666666667	0.5941999768189365	1.0494211247352865	0.1757736421389632	0.9283845306344163	1.0626205103288586	0.14901075210212153	1.2637201955243	1.073233731117727	0.11539615813010179	0.022354384909321203	0.018151153088804127	0.0011094955347216958	1.4421092324956035	1.1654394656316969	0.14939600669555297	1.3026053110405755	1.0671166506552316	0.11444640509015791	0.0	0.0	0.0	0.0	0.0	0.0	0.0	0.0	0.0	0.0	0.0	0.0	0.0	0.0	0.0	0.0	0.0	0.0	0.0	0.0	0.0	0.0	0.0	0.0	0.0	0.0	0.0	0.0	0.0	0.0	0.41710062952382987	1.00174636793807	0.2674032121113701	0.0	0.0	0.0	0.0	0.0	0.0	0.0	0.0	0.0	0.0	0.0	0.0	0.0	0.0	0.0	0.0	0.0	0.0	0.0	0.0	0.0	0.0	0.0	0.0	0.0	0.0	0.0	0.0	0.0	0.0
272	4.533333333333333	0.769780522095209	1.3579488941933935	0.2273722300133273	1.2020592552320934	1.374121972342363	0.19253044109464468	1.633559107894323	1.3867774146653242	0.15018954165197462	0.07167994126103079	0.058197182213414377	0.003556648290599129	1.8649334388732748	1.5073316499708866	0.1931137455860486	1.683979830157114	1.3798511137980247	0.14844506963138487	0.0	0.0	0.0	0.0	0.0	0.0	0.0	0.0	0.0	0.0	0.0	0.0	0.0	0.0	0.0	0.0	0.0	0.0	0.0	0.0	0.0	0.0	0.0	0.0	0.0	0.0	0.0	0.0	0.0	0.0	0.5391387652135687	1.2958292031693044	0.3458989867669905	0.0	0.0	0.0	0.0	0.0	0.0	0.0	0.0	0.0	0.0	0.0	0.0	0.0	0.0	0.0	0.0	0.0	0.0	0.0	0.0	0.0	0.0	0.0	0.0	0.0	0.0	0.0	0.0	0.0	0.0
273	4.55	0.8920275591712439	1.5704482759984046	0.26282344217651177	1.3912925448273352	1.587055893295548	0.2218774813031158	1.8870149107853296	1.6004419908955323	0.1750299436239786	0.1839327184292623	0.14931479394894187	0.009122167270548395	2.154902083717724	1.7419165790415327	0.22286457485593322	1.9455274931637865	1.594415075467021	0.172059927768556	0.0	0.0	0.0	0.0	0.0	0.0	0.0	0.0	0.0	0.0	0.0	0.0	0.0	0.0	0.0	0.0	0.0	0.0	0.0	0.0	0.0	0.0	0.0	0.0	0.0	0.0	0.0	0.0	0.0	0.0	0.6224328120893877	1.4981127679584836	0.3999590338019672	0.0	0.0	0.0	0.0	0.0	0.0	0.0	0.0	0.0	0.0	0.0	0.0	0.0	0.0	0.0	0.0	0.0	0.0	0.0	0.0	0.0	0.0	0.0	0.0	0.0	0.0	0.0	0.0	0.0	0.0
274	4.566666666666666	0.959792686890276	1.6847324392191323	0.2817243536138842	1.492828762632081	1.6974523871466833	0.23639554739814203	2.022021103839622	1.7123513962014312	0.18934312074161366	0.384760750313177	0.312275683917538	0.019065801052588413	2.3091119853379514	1.8668946816453431	0.2382909482364436	2.085133759560505	1.70886725542465	0.18482926198939761	0.0	0.0	0.0	0.0	0.0	0.0	0.0	0.0	0.0	0.0	0.0	0.0	0.0	0.0	0.0	0.0	0.0	0.0	0.0	0.0	0.0	0.0	0.0	0.0	0.0	0.0	0.0	0.0	0.0	0.0	0.6661836177286447	1.6068013689701215	0.429229141210398	0.0	0.0	0.0	0.0	0.0	0.0	0.0	0.0	0.0	0.0	0.0	0.0	0.0	0.0	0.0	0.0	0.0	0.0	0.0	0.0	0.0	0.0	0.0	0.0	0.0	0.0	0.0	0.0	0.0	0.0
